# xmcd
#
# Track frame offsets:
#	150
#	17545
#	57762
#	141431
#	169822
#	218537
#	250577
#	278960
#
# Disc length: 4181 seconds
#
# Revision: 0
# Processed by: cddbd v1.5.2PL0 Copyright (c) Steve Scherf et al.
# Submitted via: EasyCDDAExtractor 16.0.8.2
#
DISCID=6a105308
DTITLE=Μιλάνος Κάρολος-Μιλάνος Νίκος - Ακριβές στιγμές στην Σκάλα του Μιλάνου
DYEAR=2007
DGENRE=Ποικίλη
TTITLE0=Μιλάνος Κάρολος-Μιλάνος Νίκος - Βολιώτισσα [1999, Ε. Μπαλή-Χ. Βασιλειά
TTITLE0=δη]
TTITLE1=Μιλάνος Κάρολος-Μιλάνος Νίκος - Τόσα βράδια λείπειςΤο κοριτσάκιΔεν υπο
TTITLE1=φέρεσαιΒαλεντίνα κά[1985]
TTITLE2=Μιλάνος Κάρολος-Μιλάνος Νίκος - Μάγισσα ΒαγδάτηςΠασατέμποςΔραπετσώναΕγ
TTITLE2=ώ είμαι κά[1985]
TTITLE3=Μιλάνος Κάρολος-Μιλάνος Νίκος - Ο κατάδικος [1985]-Η Σκάλα του Μιλάνου
TTITLE3=[1985, Αχ. Μαντζίρη]
TTITLE4=Μιλάνος Κάρολος-Μιλάνος Νίκος - Χάρτινες σκάλες-Το λαϊκό τσιγάρο-Γλυκέ
TTITLE4=τύραννε-Κάτι μάτια [1985]
TTITLE5=Μιλάνος Κάρολος-Μιλάνος Νίκος - Λεβέντης που πονά [1985]-Άνθρωπε δυστυ
TTITLE5=χισμένε [1985, Μ. Χιώτη]
TTITLE6=Άνευ ερμηνευτού - Αυτοσχεδιασμός σε ρωσικό άσμα [1985]
TTITLE7=Μιλάνος Κάρολος-Μιλάνος Νίκος - Νύχτες της Σταμπούλ-Δέκα συμβουλές-Μάμ
TTITLE7=α-μάμα [1999]
EXTD=
EXTT0=
EXTT1=
EXTT2=
EXTT3=
EXTT4=
EXTT5=
EXTT6=
EXTT7=
PLAYORDER=
